PathFileType	4	(X/Y/Z)	C:\Users\WrightLab\Desktop\Jo\P1.2Trial7.trc
DataRate	CameraRate	NumFrames	NumMarkers	Units	OrigDataRate	OrigDataStartFrame	OrigNumFrames
100.00	100.00	       16	19	mm	100.00	270	       539
Frame#	Time	Headset_Front			Headset_Back			Headset_Left			Headset_Right			Left_Shoulder			Right_Shoulder			Sternum			C7			Left Elbow			Right Elbow			Left Wrist			Right Wrist			Left ASIS			Right ASIS			S2			Left Knee			Right Knee			Left Ankle			Right Ankle			
		X1	Y1	Z1	X2	Y2	Z2	X3	Y3	Z3	X4	Y4	Z4	X5	Y5	Z5	X6	Y6	Z6	X7	Y7	Z7	X8	Y8	Z8	X9	Y9	Z9	X10	Y10	Z10	X11	Y11	Z11	X12	Y12	Z12	X13	Y13	Z13	X14	Y14	Z14	X15	Y15	Z15	X16	Y16	Z16	X17	Y17	Z17	X18	Y18	Z18	X19	Y19	Z19	

270	2.690	-292.96762	1366.41211	450.04285	-420.42706	1481.63672	196.54561	-270.07220	1417.84827	246.27217	-433.26715	1405.83606	408.74161	-216.98384	1204.74402	131.30237	-565.73022	1222.44739	373.25790	-317.67554	1157.24414	359.34641	-453.25089	1267.83508	162.02345	-224.87553	923.02216	42.88729	-660.13898	977.03546	394.65164	-134.67183	703.93378	72.06726	-649.96948	744.02386	545.81250	-216.01241	843.43488	284.47421	-446.95013	831.63428	421.02698	-470.00168	868.59967	100.23444	-158.19817	465.42410	354.76950	-558.58728	402.77429	319.48843	-115.93848	118.57279	370.45319	-742.33221	163.83340	127.85162	
271	2.700	-284.43295	1368.45459	459.16342	-411.36093	1484.05029	206.20308	-260.95557	1420.40991	255.84984	-425.40884	1407.52417	417.69870	-207.23666	1206.82288	140.69452	-557.51556	1224.50720	381.52972	-308.13956	1159.30103	367.66330	-444.04904	1269.73193	170.15172	-213.05748	923.97089	54.71174	-651.03363	978.71240	400.22235	-121.76941	705.67816	84.59938	-641.74213	743.45966	548.13739	-205.06883	846.30896	294.20499	-434.53079	833.60095	428.58890	-460.46622	870.03754	109.05411	-148.19011	466.91922	360.68967	-546.62360	402.37073	338.29541	-111.26353	117.07387	370.66519	-729.77960	166.98338	131.32309	
272	2.710	-277.15311	1370.22937	468.73389	-401.94144	1486.55066	215.19301	-252.00867	1423.02783	265.29547	-417.29935	1409.83838	426.48108	-197.62355	1209.35864	150.15915	-548.12646	1226.49731	390.95145	-299.92178	1161.86792	376.47089	-434.11368	1272.23889	178.56702	-200.82156	925.44489	63.67395	-640.85620	980.19293	406.81882	-108.12469	708.32214	97.52738	-633.63831	743.13049	550.48401	-193.67932	848.55383	304.25027	-422.64612	836.10590	438.17294	-451.45145	872.27179	118.24394	-139.00995	468.50443	366.41611	-533.34692	402.27283	356.68094	-107.10404	115.23425	370.90329	-717.95087	174.55728	149.75644	
273	2.720	-268.97089	1371.65063	477.84924	-392.91855	1489.06372	224.31421	-243.20110	1425.48462	275.56235	-408.84570	1412.13257	435.39008	-188.22563	1211.26929	159.94939	-539.40912	1229.08643	399.08145	-291.51047	1163.85071	384.91742	-425.10236	1274.75476	187.29111	-188.67625	928.89893	74.83790	-629.62219	981.62555	415.33231	-94.84364	710.91272	110.28165	-624.36450	743.40326	552.95380	-183.21123	851.35150	312.99600	-410.35773	838.12793	447.21570	-442.92780	874.82867	127.13110	-130.50571	470.48602	370.20444	-519.47913	402.24792	375.60052	-103.84673	113.85625	371.14816	-704.37103	181.08516	162.05782	
274	2.730	-261.96527	1374.30212	487.82968	-383.91705	1492.15210	233.41829	-234.10045	1427.82080	285.01810	-401.07336	1414.48181	444.21432	-178.86670	1214.45142	169.84363	-530.69525	1231.44287	404.56070	-283.14142	1166.02258	393.05777	-416.91339	1278.62244	195.19037	-176.04593	930.80396	86.14803	-621.77582	984.35583	421.12225	-81.69379	714.43280	123.17093	-617.36609	743.42499	554.19177	-171.68138	854.65845	322.26016	-401.22516	840.34650	455.14893	-435.21591	878.39014	136.24919	-121.95338	472.05276	374.26648	-505.47699	403.21005	395.36401	-101.87925	112.82124	371.07913	-689.38611	187.75778	175.84352	
275	2.740	-255.01091	1376.21301	497.25592	-375.08746	1495.04041	242.40240	-226.13992	1430.85596	295.95346	-393.51715	1416.08435	452.69156	-170.13885	1217.36133	179.44408	-521.47607	1234.57837	417.01999	-275.53470	1168.55542	401.09164	-408.07452	1282.01001	203.38730	-163.72670	933.48358	97.50918	-613.20215	986.92743	428.04602	-68.23920	717.92157	137.06026	-609.05652	744.37878	556.05975	-161.15451	857.64471	329.89590	-392.21866	842.54401	463.34308	-427.59677	882.56805	145.05368	-114.65380	473.52194	376.89627	-490.84106	404.67947	414.55014	-100.76202	111.50636	370.49493	-672.39374	192.72894	189.93814	
276	2.750	-246.81549	1378.13660	506.41943	-366.39438	1498.31470	251.38588	-217.90247	1434.15894	304.90585	-386.13019	1418.57239	461.43668	-161.19205	1220.85449	188.89580	-513.81934	1237.65808	423.71115	-268.73712	1170.88831	409.87836	-399.64325	1285.67737	212.07629	-151.36801	936.29248	108.15480	-603.62646	989.60913	434.86566	-54.83475	721.84735	149.92796	-602.13696	745.23450	557.98413	-150.74313	861.72443	336.12537	-383.44495	844.59424	470.45712	-420.20615	886.17566	153.67963	-108.29555	474.39328	379.96317	-475.76794	407.07208	434.85391	-99.94260	110.02615	370.72229	-655.19757	198.22290	205.70656	
277	2.760	-240.58937	1380.18542	515.16998	-358.00757	1501.66602	260.61945	-209.89172	1436.67310	314.55685	-379.17273	1420.97986	469.80176	-152.54533	1224.35315	197.75414	-506.84106	1241.04590	431.90155	-261.63919	1173.31531	418.64154	-391.65042	1289.10986	219.70903	-139.53897	939.81781	118.20605	-597.36871	992.80121	441.34058	-41.18887	726.19666	164.91458	-594.51978	746.95538	559.71570	-141.01392	865.42517	341.83661	-377.24323	847.45129	478.56189	-413.47934	890.57172	162.32220	-103.17010	475.28900	382.63699	-459.88062	408.92780	453.43704	-100.12062	107.69939	369.81992	-637.11530	203.57568	222.75435	
278	2.770	-234.47360	1382.33118	524.30719	-349.62454	1505.21973	269.55554	-201.77016	1439.40271	323.92068	-372.24200	1423.59644	478.46872	-144.20461	1228.37878	207.48096	-499.37701	1243.99646	438.94165	-254.89563	1175.79309	426.51077	-383.03357	1292.57874	227.91125	-127.17042	943.23975	129.23184	-588.18268	995.18854	448.23834	-28.83980	730.91547	179.01204	-587.13324	748.55396	561.95172	-133.07712	868.96759	347.96826	-371.59268	850.33600	486.07819	-406.98056	894.74695	170.81729	-98.80237	474.92249	384.90854	-445.32196	412.29544	473.38391	-100.47316	105.78983	369.70773	-618.26550	206.61217	239.52452	
279	2.780	-227.90904	1384.15662	533.14227	-341.70102	1508.46155	278.81311	-194.22684	1443.06787	333.00348	-365.30112	1425.69556	486.72394	-136.42471	1231.51819	216.28932	-491.91049	1246.67725	446.11887	-248.76376	1178.49731	434.77509	-375.04367	1296.09265	235.70677	-115.60368	946.29303	139.70265	-582.42529	998.40753	454.45840	-15.83735	735.77222	193.37111	-579.93500	750.72333	564.35748	-126.00258	873.13324	354.25436	-367.05344	853.25403	492.63647	-400.14804	898.77997	178.85208	-94.80061	473.62491	388.33035	-429.86472	415.85770	491.60449	-101.49052	104.13102	368.68106	-598.92133	208.80119	256.34982	
280	2.790	-222.66325	1385.73914	541.40424	-333.63687	1511.90234	287.79025	-186.93312	1446.25208	341.75049	-358.94113	1428.14563	495.03067	-128.38788	1235.41821	225.53186	-486.05905	1250.26245	454.00815	-242.14128	1180.83972	442.71555	-367.26721	1299.23401	243.54822	-103.60756	949.94287	150.11708	-574.21637	1001.16644	460.50201	-3.17006	740.67615	207.52539	-573.39392	752.96796	568.65887	-118.39466	877.16058	360.02798	-363.14230	856.11804	500.08139	-393.21597	902.90344	186.58490	-91.14279	472.41788	391.15710	-414.78937	420.36880	509.32272	-102.72294	102.40351	368.81131	-579.80560	210.23976	274.47800	
281	2.800	-215.91426	1388.05042	551.99359	-325.75891	1515.00500	296.56387	-179.49251	1449.07922	351.08679	-352.79431	1430.17554	503.31091	-120.81252	1238.99036	234.78983	-479.84015	1253.19434	461.29724	-236.42067	1183.77454	451.43204	-359.65759	1302.56116	251.28296	-92.40071	953.88153	159.90970	-567.56976	1003.80853	466.09415	9.71522	745.62842	222.30818	-566.83820	755.23755	571.32715	-111.82365	881.11884	367.65182	-359.17966	858.64417	507.03754	-386.39017	906.72296	194.11217	-87.70319	471.41547	393.20486	-398.88373	424.89108	527.34686	-103.62805	101.31964	368.45926	-559.83429	210.58911	292.73187	
282	2.810	-209.88893	1389.65649	560.16357	-318.08490	1518.02917	305.44855	-172.47098	1451.88281	359.99973	-347.17191	1431.96021	511.78406	-112.71366	1242.22229	243.94748	-473.30801	1255.85388	466.61630	-231.01254	1186.53992	459.45572	-352.34946	1305.79919	259.32593	-81.29530	957.29419	170.57983	-561.34045	1006.27191	471.62009	22.04031	750.29883	236.73056	-559.89111	757.32678	574.35510	-105.84741	884.29773	375.42572	-356.16321	861.39685	514.90521	-378.77841	910.13269	201.89629	-85.01331	469.45007	395.28864	-383.44827	430.64359	545.26276	-104.82020	100.06026	367.68741	-541.11090	209.91856	311.86276	
283	2.820	-204.32980	1391.02551	569.26459	-310.68237	1520.90601	314.10410	-165.39815	1454.15186	370.98929	-340.99945	1434.02600	519.93347	-105.38396	1245.58362	252.88295	-467.01572	1258.00647	474.68542	-225.12801	1188.60828	467.72107	-344.91653	1309.01868	266.92084	-70.20816	960.57471	180.50758	-555.35992	1009.12030	476.72476	34.45987	755.60419	251.30754	-554.09851	758.69531	577.13153	-100.75767	887.09393	383.91660	-351.01459	863.36377	521.50000	-371.39398	913.71503	209.06403	-82.14393	468.29553	397.23126	-367.59262	435.52191	562.00800	-106.00283	99.68327	366.97992	-520.15607	208.57538	329.85526	
284	2.830	-198.89272	1392.76160	578.22485	-303.49014	1523.71863	322.86798	-158.44943	1456.35303	381.67322	-334.28253	1435.57703	527.91235	-97.99561	1248.27136	261.98123	-462.22482	1260.91943	482.40161	-219.25977	1190.95996	475.78113	-337.17950	1311.59216	274.78824	-60.05152	963.60266	191.63113	-549.66968	1011.33466	481.27701	46.31088	760.45337	265.19742	-547.68237	760.98352	581.64282	-95.25401	888.44513	391.95624	-347.15952	866.04767	529.92511	-364.09946	917.19843	216.04921	-79.87096	466.51563	399.92160	-353.32703	442.81876	579.49402	-107.43635	99.13560	366.78970	-500.74017	205.97638	349.03500	
285	2.840	-193.88045	1394.05383	587.46008	-296.67703	1526.01880	331.68829	-151.81799	1458.40576	391.64545	-329.35114	1437.72888	536.31537	-90.83770	1251.14185	271.15289	-455.60294	1262.50037	489.10782	-213.06931	1193.14868	483.88055	-330.12036	1314.26025	282.50494	-50.15887	966.16412	202.26468	-544.91718	1013.96948	486.69913	57.67839	765.10925	278.98492	-542.35437	761.76978	584.51953	-89.80322	890.31824	399.52994	-341.69870	868.68768	537.29034	-357.03815	920.00531	223.14563	-77.78652	465.47070	401.05200	-338.52914	449.90466	595.55341	-109.86828	98.58392	365.99664	-480.56198	201.98825	368.03128	
